<?xml version="1.0" standalone="no"?>
<!DOCTYPE svg PUBLIC "-//W3C//DTD SVG 20010904//EN"
 "http://www.w3.org/TR/2001/REC-SVG-20010904/DTD/svg10.dtd">
<svg version="1.0" xmlns="http://www.w3.org/2000/svg"
 width="2048.000000pt" height="2048.000000pt" viewBox="0 0 2048.000000 2048.000000"
 preserveAspectRatio="xMidYMid meet">
<metadata>
Created by potrace 1.16, written by Peter Selinger 2001-2019
</metadata>
<g transform="translate(0.000000,2048.000000) scale(0.100000,-0.100000)"
fill="#ffffff" stroke="none">
<path d="M10200 16994 c-417 -35 -908 -174 -1380 -391 -223 -103 -323 -155
-545 -286 -312 -185 -1013 -607 -1346 -813 -123 -76 -314 -191 -424 -257 -110
-66 -245 -148 -300 -182 -55 -34 -149 -91 -210 -127 -130 -78 -721 -435 -885
-535 -63 -38 -182 -110 -265 -158 -215 -126 -337 -207 -328 -216 9 -8 332
-209 553 -344 74 -45 182 -111 240 -147 58 -36 177 -109 265 -163 88 -54 219
-134 290 -178 146 -90 471 -288 525 -320 19 -12 58 -37 85 -56 48 -34 208
-133 405 -251 127 -76 425 -259 580 -355 69 -43 202 -124 295 -180 94 -56 206
-125 250 -152 44 -27 240 -148 435 -268 195 -120 447 -275 560 -345 113 -70
277 -171 365 -225 88 -53 198 -121 245 -150 47 -29 182 -112 300 -185 118 -73
243 -150 276 -172 l62 -39 33 19 c19 11 106 64 194 117 231 141 623 378 745
450 136 80 524 316 710 431 80 49 289 176 465 282 176 106 370 223 430 260
237 145 640 390 795 484 41 25 153 91 248 147 444 263 758 505 974 750 234
266 328 475 328 732 0 264 -111 468 -380 699 -217 187 -450 322 -730 423 -323
118 -548 157 -895 157 -275 0 -499 -30 -760 -102 -82 -22 -160 -43 -172 -46
-22 -4 -21 -1 16 79 139 299 142 495 12 747 -126 241 -420 481 -806 659 -165
75 -441 156 -646 188 -99 16 -500 28 -609 19z m-90 -1375 c184 -39 372 -166
445 -299 39 -72 41 -153 6 -220 -81 -156 -201 -255 -586 -482 -56 -33 -545
-330 -750 -456 -49 -30 -211 -128 -360 -217 -148 -90 -337 -203 -419 -253
l-148 -89 -257 157 c-141 86 -315 195 -388 241 -73 46 -182 116 -242 154 -61
39 -111 73 -111 76 0 3 78 53 173 110 94 57 307 186 472 288 165 101 372 227
460 279 88 52 199 119 248 149 48 29 126 77 175 106 273 168 493 294 593 341
247 117 489 158 689 115z m2396 -1298 c215 -52 401 -188 454 -332 49 -129 11
-250 -119 -380 -95 -95 -194 -161 -591 -396 -69 -41 -141 -85 -160 -97 -19
-13 -120 -74 -225 -136 -104 -63 -219 -132 -255 -155 -36 -23 -114 -71 -175
-107 -60 -35 -238 -143 -395 -238 -485 -295 -460 -281 -484 -268 -25 13 -375
230 -426 263 -34 22 -352 217 -454 277 -99 59 -206 130 -206 137 0 4 16 15 34
24 44 20 313 182 1141 685 105 63 215 130 245 147 30 18 105 63 165 100 61 37
128 78 150 90 22 13 85 50 140 83 191 116 310 180 402 216 111 44 294 93 394
106 103 12 269 4 365 -19z"/>
<path d="M4230 13038 c0 -216 -4 -1221 -10 -2233 -5 -1012 -11 -2351 -14
-2975 -2 -624 -5 -1141 -7 -1149 -4 -13 137 -107 453 -300 84 -51 277 -169
428 -263 151 -93 328 -201 393 -241 66 -40 151 -93 190 -118 40 -25 98 -61
130 -79 l57 -32 1 369 c1 202 5 715 8 1140 l6 771 295 -179 c299 -181 476
-290 669 -410 124 -77 90 -16 291 -529 70 -179 172 -437 228 -575 55 -137 125
-313 155 -390 30 -77 69 -174 85 -215 17 -41 146 -365 287 -720 141 -355 261
-650 266 -656 5 -6 48 -35 96 -64 49 -29 174 -106 278 -170 200 -124 449 -278
575 -355 41 -25 154 -95 250 -154 96 -60 247 -153 335 -206 88 -54 178 -110
200 -125 47 -32 135 -82 135 -77 0 3 -57 141 -80 192 -35 78 -100 234 -100
238 0 3 -32 81 -71 174 -122 292 -204 490 -323 778 -63 154 -173 422 -244 595
-72 173 -167 405 -212 515 -45 110 -122 299 -172 420 -140 340 -179 438 -175
442 3 2 44 -3 92 -12 239 -41 498 7 682 127 249 162 390 428 460 863 14 87 18
173 18 415 0 269 -3 323 -23 455 -42 272 -132 608 -227 845 -280 700 -788
1344 -1447 1835 -181 135 -406 279 -1128 718 -63 39 -131 80 -150 92 -19 12
-107 66 -195 120 -88 54 -248 152 -355 218 -107 66 -233 143 -280 172 -121 74
-596 366 -720 443 -103 65 -535 330 -720 443 -192 117 -398 239 -404 239 -3 0
-6 -177 -6 -392z m1720 -2148 c14 -10 129 -79 255 -155 127 -75 286 -172 355
-215 69 -43 197 -122 285 -176 88 -54 187 -115 220 -136 33 -20 80 -49 105
-64 114 -68 312 -192 385 -240 264 -175 441 -366 555 -599 105 -213 143 -370
143 -580 -1 -307 -82 -447 -279 -484 -102 -19 -259 28 -452 136 -137 76 -473
279 -787 473 -126 79 -372 229 -545 333 -173 105 -317 191 -318 193 -2 1 -1
350 3 774 l8 770 21 -6 c12 -4 32 -14 46 -24z"/>
<path d="M16150 13326 c-63 -41 -216 -136 -340 -211 -124 -75 -241 -147 -260
-160 -19 -12 -170 -105 -335 -205 -383 -234 -658 -402 -860 -525 -88 -54 -180
-110 -205 -125 -25 -15 -124 -76 -220 -136 -162 -101 -618 -378 -797 -485 -87
-51 -408 -249 -463 -284 -19 -12 -93 -58 -165 -100 -71 -43 -183 -111 -247
-152 -65 -40 -214 -131 -330 -201 -117 -71 -278 -169 -358 -219 -188 -117
-452 -276 -615 -373 -71 -43 -182 -109 -245 -148 l-115 -71 -3 -798 c-1 -439
0 -804 3 -811 4 -10 11 -8 32 6 16 11 134 83 263 159 129 77 307 184 395 238
88 54 214 131 280 170 66 40 226 136 355 215 129 79 300 182 380 230 80 48
184 112 231 142 l85 55 -4 -2598 c-3 -1430 -1 -2599 3 -2599 7 0 109 60 400
235 285 172 317 191 418 252 56 35 119 73 140 85 21 13 57 35 80 49 23 14 169
102 325 195 l282 168 0 2607 0 2607 28 18 c15 10 68 44 119 74 170 102 377
227 563 340 102 62 228 139 282 171 53 31 161 98 240 147 78 49 288 176 466
283 l322 193 0 818 c0 450 -3 818 -7 818 -5 0 -60 -34 -123 -74z"/>
</g>
</svg>
