<svg xmlns="http://www.w3.org/2000/svg" viewBox="0 0 32 32" fill="white"><path d="M15.076 7.296a1.85 1.85 0 0 1 1.848 0l6.152 3.552c.572.33.924.94.924 1.6v7.104c0 .66-.352 1.27-.924 1.6l-6.152 3.552c-.572.33-1.276.33-1.848 0l-6.152-3.552a1.85 1.85 0 0 1-.924-1.6v-7.104c0-.66.352-1.27.924-1.6zM12 13v6a1 1 0 0 0 1 1h6a1 1 0 0 0 1-1v-6a1 1 0 0 0-1-1h-6a1 1 0 0 0-1 1"/><path d="M13.856 2.56a4.38 4.38 0 0 1 4.288 0l8.712 4.908A4.17 4.17 0 0 1 29 11.092v9.815a4.17 4.17 0 0 1-2.144 3.625l-8.712 4.907a4.38 4.38 0 0 1-4.288 0l-8.712-4.907A4.17 4.17 0 0 1 3 20.907v-9.814c0-1.496.817-2.877 2.144-3.625zm3.307 1.743a2.38 2.38 0 0 0-2.326 0l-8.71 4.908A2.17 2.17 0 0 0 5 11.092v9.815c0 .757.414 1.48 1.126 1.882l8.711 4.908a2.38 2.38 0 0 0 2.326 0l8.71-4.908A2.17 2.17 0 0 0 27 20.907v-9.814a2.17 2.17 0 0 0-1.126-1.882z"/></svg>